<mxfile host="app.diagrams.net" modified="2022-04-10T02:57:40.087Z" agent="5.0 (Windows NT 10.0; Win64; x64) AppleWebKit/537.36 (KHTML, like Gecko) Chrome/99.0.4844.74 Safari/537.36" etag="3E3CfflUaela5ax57I5I" version="17.4.0" type="github">
  <diagram id="BdLwMyGjnG6UXohXk7-T" name="Page-1">
    <mxGraphModel dx="1422" dy="786" grid="1" gridSize="10" guides="1" tooltips="1" connect="1" arrows="1" fold="1" page="1" pageScale="1" pageWidth="827" pageHeight="1169" math="0" shadow="0">
      <root>
        <mxCell id="0" />
        <mxCell id="1" parent="0" />
        <mxCell id="7YYmYSPFP5t7wdT3Zkfi-18" value="" style="rounded=0;whiteSpace=wrap;html=1;fillColor=#E6E6E6;" vertex="1" parent="1">
          <mxGeometry x="294" y="68" width="486" height="200" as="geometry" />
        </mxCell>
        <mxCell id="u_pD7Ns_MpsrbYzYDKfG-13" value="" style="rounded=0;whiteSpace=wrap;html=1;dashed=1;fillColor=#d5e8d4;strokeColor=#82b366;" parent="1" vertex="1">
          <mxGeometry x="610" y="98" width="153" height="152" as="geometry" />
        </mxCell>
        <mxCell id="KMk3zY3-F5rNktSrJOaJ-93" value="" style="verticalLabelPosition=bottom;verticalAlign=top;html=1;shadow=0;dashed=0;strokeWidth=1;shape=mxgraph.ios.iBgFlat;labelBackgroundColor=none;fillColor=#E6E6E6;" parent="1" vertex="1">
          <mxGeometry x="38" y="300" width="742" height="568.39" as="geometry" />
        </mxCell>
        <mxCell id="KMk3zY3-F5rNktSrJOaJ-60" value="Server contents" style="points=[[0,0],[0.25,0],[0.5,0],[0.75,0],[1,0],[1,0.25],[1,0.5],[1,0.75],[1,1],[0.75,1],[0.5,1],[0.25,1],[0,1],[0,0.75],[0,0.5],[0,0.25]];outlineConnect=0;gradientColor=none;html=1;whiteSpace=wrap;fontSize=12;fontStyle=0;shape=mxgraph.aws4.group;grIcon=mxgraph.aws4.group_on_premise;strokeColor=#5A6C86;fillColor=none;verticalAlign=top;align=left;spacingLeft=30;fontColor=#5A6C86;dashed=0;" parent="1" vertex="1">
          <mxGeometry x="72" y="540" width="148" height="300" as="geometry" />
        </mxCell>
        <mxCell id="KMk3zY3-F5rNktSrJOaJ-39" value="&lt;font color=&quot;#004c99&quot;&gt;&lt;b&gt;应用层&lt;/b&gt;&lt;/font&gt;" style="points=[[0,0],[0.25,0],[0.5,0],[0.75,0],[1,0],[1,0.25],[1,0.5],[1,0.75],[1,1],[0.75,1],[0.5,1],[0.25,1],[0,1],[0,0.75],[0,0.5],[0,0.25]];outlineConnect=0;gradientColor=none;html=1;whiteSpace=wrap;fontSize=12;fontStyle=0;shape=mxgraph.aws4.group;grIcon=mxgraph.aws4.group_vpc;strokeColor=#007FFF;fillColor=none;verticalAlign=top;align=left;spacingLeft=30;fontColor=#AAB7B8;dashed=0;" parent="1" vertex="1">
          <mxGeometry x="278" y="555" width="490" height="170" as="geometry" />
        </mxCell>
        <mxCell id="KMk3zY3-F5rNktSrJOaJ-65" value="" style="rounded=0;whiteSpace=wrap;html=1;dashed=1;strokeColor=#d6b656;fillColor=#fff2cc;gradientColor=#ffd966;" parent="1" vertex="1">
          <mxGeometry x="88.75" y="615" width="112.5" height="215" as="geometry" />
        </mxCell>
        <mxCell id="KMk3zY3-F5rNktSrJOaJ-47" value="&lt;b&gt;&lt;font color=&quot;#004c99&quot;&gt;数据层&lt;/font&gt;&lt;/b&gt;" style="points=[[0,0],[0.25,0],[0.5,0],[0.75,0],[1,0],[1,0.25],[1,0.5],[1,0.75],[1,1],[0.75,1],[0.5,1],[0.25,1],[0,1],[0,0.75],[0,0.5],[0,0.25]];outlineConnect=0;gradientColor=none;html=1;whiteSpace=wrap;fontSize=12;fontStyle=0;shape=mxgraph.aws4.group;grIcon=mxgraph.aws4.group_vpc;strokeColor=#007FFF;fillColor=none;verticalAlign=top;align=left;spacingLeft=30;fontColor=#AAB7B8;dashed=0;" parent="1" vertex="1">
          <mxGeometry x="276.5" y="740" width="491.5" height="100" as="geometry" />
        </mxCell>
        <mxCell id="KMk3zY3-F5rNktSrJOaJ-46" value="&lt;b&gt;&lt;font color=&quot;#004c99&quot;&gt;发布层&lt;/font&gt;&lt;/b&gt;" style="points=[[0,0],[0.25,0],[0.5,0],[0.75,0],[1,0],[1,0.25],[1,0.5],[1,0.75],[1,1],[0.75,1],[0.5,1],[0.25,1],[0,1],[0,0.75],[0,0.5],[0,0.25]];outlineConnect=0;gradientColor=none;html=1;whiteSpace=wrap;fontSize=12;fontStyle=0;shape=mxgraph.aws4.group;grIcon=mxgraph.aws4.group_vpc;strokeColor=#007FFF;fillColor=none;verticalAlign=top;align=left;spacingLeft=30;fontColor=#AAB7B8;dashed=0;" parent="1" vertex="1">
          <mxGeometry x="278" y="420" width="490" height="120" as="geometry" />
        </mxCell>
        <mxCell id="KMk3zY3-F5rNktSrJOaJ-48" value="VPC" style="points=[[0,0],[0.25,0],[0.5,0],[0.75,0],[1,0],[1,0.25],[1,0.5],[1,0.75],[1,1],[0.75,1],[0.5,1],[0.25,1],[0,1],[0,0.75],[0,0.5],[0,0.25]];outlineConnect=0;gradientColor=none;html=1;whiteSpace=wrap;fontSize=12;fontStyle=0;shape=mxgraph.aws4.group;grIcon=mxgraph.aws4.group_vpc;strokeColor=#248814;fillColor=none;verticalAlign=top;align=left;spacingLeft=30;fontColor=#AAB7B8;dashed=0;" parent="1" vertex="1">
          <mxGeometry x="305.25" y="583.21" width="451.5" height="133.58" as="geometry" />
        </mxCell>
        <mxCell id="KMk3zY3-F5rNktSrJOaJ-34" value="" style="rounded=0;whiteSpace=wrap;html=1;dashed=1;labelBackgroundColor=none;fillColor=#fff2cc;gradientColor=#ffd966;strokeColor=#d6b656;" parent="1" vertex="1">
          <mxGeometry x="368" y="600" width="212" height="110" as="geometry" />
        </mxCell>
        <mxCell id="KMk3zY3-F5rNktSrJOaJ-10" value="" style="sketch=0;aspect=fixed;html=1;points=[];align=center;image;fontSize=12;image=img/lib/mscae/Cache_Redis_Product.svg;" parent="1" vertex="1">
          <mxGeometry x="306" y="765" width="50" height="42" as="geometry" />
        </mxCell>
        <mxCell id="KMk3zY3-F5rNktSrJOaJ-11" value="Redis" style="text;html=1;strokeColor=none;fillColor=none;align=center;verticalAlign=middle;whiteSpace=wrap;rounded=0;fontStyle=1" parent="1" vertex="1">
          <mxGeometry x="301" y="807" width="60" height="30" as="geometry" />
        </mxCell>
        <mxCell id="KMk3zY3-F5rNktSrJOaJ-13" value="" style="sketch=0;aspect=fixed;html=1;points=[];align=center;image;fontSize=12;image=img/lib/mscae/Azure_Database_for_MySQL_servers.svg;" parent="1" vertex="1">
          <mxGeometry x="503" y="757" width="38" height="50" as="geometry" />
        </mxCell>
        <mxCell id="KMk3zY3-F5rNktSrJOaJ-14" value="MySQL" style="text;html=1;strokeColor=none;fillColor=none;align=center;verticalAlign=middle;whiteSpace=wrap;rounded=0;fontStyle=1" parent="1" vertex="1">
          <mxGeometry x="492" y="807" width="60" height="30" as="geometry" />
        </mxCell>
        <mxCell id="KMk3zY3-F5rNktSrJOaJ-16" value="" style="sketch=0;pointerEvents=1;shadow=0;dashed=0;html=1;strokeColor=none;fillColor=#DF8C42;labelPosition=center;verticalLabelPosition=bottom;verticalAlign=top;align=center;outlineConnect=0;shape=mxgraph.veeam2.ibm_object_storage;" parent="1" vertex="1">
          <mxGeometry x="689" y="769" width="34" height="34" as="geometry" />
        </mxCell>
        <mxCell id="KMk3zY3-F5rNktSrJOaJ-17" value="OSS" style="text;html=1;strokeColor=none;fillColor=none;align=center;verticalAlign=middle;whiteSpace=wrap;rounded=0;fontStyle=1" parent="1" vertex="1">
          <mxGeometry x="676" y="807" width="60" height="30" as="geometry" />
        </mxCell>
        <mxCell id="KMk3zY3-F5rNktSrJOaJ-21" value="生产1" style="text;html=1;strokeColor=none;fillColor=none;align=center;verticalAlign=middle;whiteSpace=wrap;rounded=0;fontStyle=1" parent="1" vertex="1">
          <mxGeometry x="377" y="658.4100000000001" width="60" height="30" as="geometry" />
        </mxCell>
        <mxCell id="KMk3zY3-F5rNktSrJOaJ-22" value="生产2" style="text;html=1;strokeColor=none;fillColor=none;align=center;verticalAlign=middle;whiteSpace=wrap;rounded=0;fontStyle=1" parent="1" vertex="1">
          <mxGeometry x="443" y="658.4100000000001" width="60" height="30" as="geometry" />
        </mxCell>
        <mxCell id="KMk3zY3-F5rNktSrJOaJ-23" value="生产3" style="text;html=1;strokeColor=none;fillColor=none;align=center;verticalAlign=middle;whiteSpace=wrap;rounded=0;fontStyle=1" parent="1" vertex="1">
          <mxGeometry x="501" y="658.4100000000001" width="60" height="30" as="geometry" />
        </mxCell>
        <mxCell id="KMk3zY3-F5rNktSrJOaJ-24" value="" style="aspect=fixed;perimeter=ellipsePerimeter;html=1;align=center;shadow=0;dashed=0;spacingTop=3;image;image=img/lib/active_directory/windows_server.svg;" parent="1" vertex="1">
          <mxGeometry x="599.6" y="630" width="32.8" height="40" as="geometry" />
        </mxCell>
        <mxCell id="KMk3zY3-F5rNktSrJOaJ-30" value="" style="aspect=fixed;perimeter=ellipsePerimeter;html=1;align=center;shadow=0;dashed=0;spacingTop=3;image;image=img/lib/active_directory/cluster_server.svg;" parent="1" vertex="1">
          <mxGeometry x="382" y="608.4100000000001" width="50" height="50" as="geometry" />
        </mxCell>
        <mxCell id="KMk3zY3-F5rNktSrJOaJ-31" value="" style="aspect=fixed;perimeter=ellipsePerimeter;html=1;align=center;shadow=0;dashed=0;spacingTop=3;image;image=img/lib/active_directory/cluster_server.svg;" parent="1" vertex="1">
          <mxGeometry x="451" y="608.4100000000001" width="50" height="50" as="geometry" />
        </mxCell>
        <mxCell id="KMk3zY3-F5rNktSrJOaJ-32" value="" style="aspect=fixed;perimeter=ellipsePerimeter;html=1;align=center;shadow=0;dashed=0;spacingTop=3;image;image=img/lib/active_directory/cluster_server.svg;" parent="1" vertex="1">
          <mxGeometry x="518" y="608.4100000000001" width="50" height="50" as="geometry" />
        </mxCell>
        <mxCell id="KMk3zY3-F5rNktSrJOaJ-44" value="" style="sketch=0;html=1;aspect=fixed;strokeColor=none;shadow=0;align=center;verticalAlign=top;fillColor=#3B8DF1;shape=mxgraph.gcp2.load_balancing" parent="1" vertex="1">
          <mxGeometry x="531" y="501" width="100" height="26" as="geometry" />
        </mxCell>
        <mxCell id="KMk3zY3-F5rNktSrJOaJ-45" value="" style="sketch=0;aspect=fixed;html=1;points=[];align=center;image;fontSize=12;image=img/lib/mscae/CustomDomain.svg;strokeColor=#006600;" parent="1" vertex="1">
          <mxGeometry x="556" y="434" width="50" height="42" as="geometry" />
        </mxCell>
        <mxCell id="KMk3zY3-F5rNktSrJOaJ-53" value="SLB" style="text;html=1;strokeColor=none;fillColor=none;align=center;verticalAlign=middle;whiteSpace=wrap;rounded=0;dashed=1;fontStyle=1" parent="1" vertex="1">
          <mxGeometry x="651" y="493" width="80" height="34" as="geometry" />
        </mxCell>
        <mxCell id="KMk3zY3-F5rNktSrJOaJ-54" value="DNS" style="text;html=1;strokeColor=none;fillColor=none;align=center;verticalAlign=middle;whiteSpace=wrap;rounded=0;dashed=1;fontStyle=1" parent="1" vertex="1">
          <mxGeometry x="651" y="434" width="80" height="34" as="geometry" />
        </mxCell>
        <mxCell id="KMk3zY3-F5rNktSrJOaJ-56" value="" style="endArrow=none;dashed=1;html=1;rounded=0;fontColor=#660033;" parent="1" edge="1">
          <mxGeometry width="50" height="50" relative="1" as="geometry">
            <mxPoint x="248" y="850" as="sourcePoint" />
            <mxPoint x="248" y="330" as="targetPoint" />
          </mxGeometry>
        </mxCell>
        <mxCell id="KMk3zY3-F5rNktSrJOaJ-58" value="" style="aspect=fixed;perimeter=ellipsePerimeter;html=1;align=center;shadow=0;dashed=0;spacingTop=3;image;image=img/lib/active_directory/generic_server.svg;fontColor=#660033;strokeColor=#007FFF;" parent="1" vertex="1">
          <mxGeometry x="138" y="485" width="28.000000000000004" height="50" as="geometry" />
        </mxCell>
        <mxCell id="KMk3zY3-F5rNktSrJOaJ-61" value="" style="sketch=0;aspect=fixed;html=1;points=[];align=center;image;fontSize=12;image=img/lib/mscae/Azure_Database_for_MySQL_servers.svg;" parent="1" vertex="1">
          <mxGeometry x="88" y="570" width="22.8" height="30" as="geometry" />
        </mxCell>
        <mxCell id="KMk3zY3-F5rNktSrJOaJ-62" value="测试数据库" style="text;html=1;strokeColor=none;fillColor=none;align=center;verticalAlign=middle;whiteSpace=wrap;rounded=0;dashed=1;fontColor=#000000;fontStyle=1" parent="1" vertex="1">
          <mxGeometry x="120.86" y="575" width="70" height="20" as="geometry" />
        </mxCell>
        <mxCell id="KMk3zY3-F5rNktSrJOaJ-64" value="" style="sketch=0;aspect=fixed;html=1;points=[];align=center;image;fontSize=12;image=img/lib/mscae/Docker.svg;dashed=1;fontColor=#660033;strokeColor=#007FFF;" parent="1" vertex="1">
          <mxGeometry x="96.27000000000001" y="620" width="20.73" height="17" as="geometry" />
        </mxCell>
        <mxCell id="KMk3zY3-F5rNktSrJOaJ-74" value="TelePort" style="shape=process;whiteSpace=wrap;html=1;backgroundOutline=1;strokeColor=#6c8ebf;fillColor=#dae8fc;gradientColor=#7ea6e0;" parent="1" vertex="1">
          <mxGeometry x="96.27000000000001" y="637.5" width="91.73" height="25" as="geometry" />
        </mxCell>
        <mxCell id="KMk3zY3-F5rNktSrJOaJ-75" value="Mariadb" style="shape=process;whiteSpace=wrap;html=1;backgroundOutline=1;strokeColor=#6c8ebf;fillColor=#dae8fc;gradientColor=#7ea6e0;" parent="1" vertex="1">
          <mxGeometry x="96.27000000000001" y="663.4100000000001" width="91.73" height="25" as="geometry" />
        </mxCell>
        <mxCell id="KMk3zY3-F5rNktSrJOaJ-76" value="Redis" style="shape=process;whiteSpace=wrap;html=1;backgroundOutline=1;strokeColor=#6c8ebf;fillColor=#dae8fc;gradientColor=#7ea6e0;" parent="1" vertex="1">
          <mxGeometry x="96.27000000000001" y="688.4100000000001" width="91.73" height="25" as="geometry" />
        </mxCell>
        <mxCell id="KMk3zY3-F5rNktSrJOaJ-81" value="" style="sketch=0;html=1;aspect=fixed;strokeColor=none;shadow=0;align=center;verticalAlign=top;fillColor=#3B8DF1;shape=mxgraph.gcp2.load_balancing" parent="1" vertex="1">
          <mxGeometry x="121.22999999999999" y="456" width="61.54" height="16" as="geometry" />
        </mxCell>
        <mxCell id="KMk3zY3-F5rNktSrJOaJ-82" value="" style="sketch=0;aspect=fixed;html=1;points=[];align=center;image;fontSize=12;image=img/lib/mscae/CustomDomain.svg;strokeColor=#006600;" parent="1" vertex="1">
          <mxGeometry x="138" y="404" width="35.71" height="30" as="geometry" />
        </mxCell>
        <mxCell id="KMk3zY3-F5rNktSrJOaJ-86" value="DNS" style="text;html=1;strokeColor=none;fillColor=none;align=center;verticalAlign=middle;whiteSpace=wrap;rounded=0;dashed=1;fontStyle=1" parent="1" vertex="1">
          <mxGeometry x="47.14" y="400" width="80" height="34" as="geometry" />
        </mxCell>
        <mxCell id="KMk3zY3-F5rNktSrJOaJ-87" value="SLB" style="text;html=1;strokeColor=none;fillColor=none;align=center;verticalAlign=middle;whiteSpace=wrap;rounded=0;dashed=1;fontStyle=1" parent="1" vertex="1">
          <mxGeometry x="47.14" y="438" width="80" height="34" as="geometry" />
        </mxCell>
        <mxCell id="KMk3zY3-F5rNktSrJOaJ-88" value="Server" style="text;html=1;strokeColor=none;fillColor=none;align=center;verticalAlign=middle;whiteSpace=wrap;rounded=0;dashed=1;fontStyle=1" parent="1" vertex="1">
          <mxGeometry x="47.14" y="485" width="80" height="34" as="geometry" />
        </mxCell>
        <mxCell id="KMk3zY3-F5rNktSrJOaJ-90" value="&lt;b&gt;&lt;i&gt;&lt;font color=&quot;#660033&quot;&gt;开发/测试环境&lt;/font&gt;&lt;/i&gt;&lt;/b&gt;" style="rounded=1;whiteSpace=wrap;html=1;strokeWidth=2;fillWeight=4;hachureGap=8;hachureAngle=45;fillColor=#1ba1e2;sketch=1;fontColor=#000000;" parent="1" vertex="1">
          <mxGeometry x="127.13999999999997" y="330" width="103.77" height="40" as="geometry" />
        </mxCell>
        <mxCell id="KMk3zY3-F5rNktSrJOaJ-91" value="&lt;b&gt;&lt;i&gt;&lt;font color=&quot;#660033&quot;&gt;生产环境&lt;/font&gt;&lt;/i&gt;&lt;/b&gt;" style="rounded=1;whiteSpace=wrap;html=1;strokeWidth=2;fillWeight=4;hachureGap=8;hachureAngle=45;fillColor=#1ba1e2;sketch=1;fontColor=#000000;" parent="1" vertex="1">
          <mxGeometry x="264.23" y="330" width="103.77" height="40" as="geometry" />
        </mxCell>
        <mxCell id="KMk3zY3-F5rNktSrJOaJ-98" value="apollo" style="shape=process;whiteSpace=wrap;html=1;backgroundOutline=1;strokeColor=#6c8ebf;fillColor=#dae8fc;gradientColor=#7ea6e0;" parent="1" vertex="1">
          <mxGeometry x="661.75" y="620" width="88.5" height="23.17" as="geometry" />
        </mxCell>
        <mxCell id="KMk3zY3-F5rNktSrJOaJ-99" value="xxl-job" style="shape=process;whiteSpace=wrap;html=1;backgroundOutline=1;strokeColor=#6c8ebf;fillColor=#dae8fc;gradientColor=#7ea6e0;" parent="1" vertex="1">
          <mxGeometry x="661.75" y="651.83" width="88.5" height="23.17" as="geometry" />
        </mxCell>
        <mxCell id="KMk3zY3-F5rNktSrJOaJ-100" value="eruka" style="shape=process;whiteSpace=wrap;html=1;backgroundOutline=1;strokeColor=#6c8ebf;fillColor=#dae8fc;gradientColor=#7ea6e0;" parent="1" vertex="1">
          <mxGeometry x="661.75" y="685.24" width="88.5" height="23.17" as="geometry" />
        </mxCell>
        <mxCell id="KMk3zY3-F5rNktSrJOaJ-101" value="工作节点" style="text;html=1;align=center;verticalAlign=middle;whiteSpace=wrap;rounded=0;fontStyle=1;fillColor=#f8cecc;gradientColor=#ea6b66;strokeColor=#b85450;" parent="1" vertex="1">
          <mxGeometry x="368" y="688.4100000000001" width="70" height="20" as="geometry" />
        </mxCell>
        <mxCell id="KMk3zY3-F5rNktSrJOaJ-102" value="调度节点" style="text;html=1;align=center;verticalAlign=middle;whiteSpace=wrap;rounded=0;fontStyle=1;fillColor=#f8cecc;gradientColor=#ea6b66;strokeColor=#b85450;" parent="1" vertex="1">
          <mxGeometry x="583" y="685.24" width="70" height="20" as="geometry" />
        </mxCell>
        <mxCell id="KMk3zY3-F5rNktSrJOaJ-106" value="Content" style="points=[[0,0],[0.25,0],[0.5,0],[0.75,0],[1,0],[1,0.25],[1,0.5],[1,0.75],[1,1],[0.75,1],[0.5,1],[0.25,1],[0,1],[0,0.75],[0,0.5],[0,0.25]];outlineConnect=0;gradientColor=none;html=1;whiteSpace=wrap;fontSize=12;fontStyle=0;shape=mxgraph.aws4.group;grIcon=mxgraph.aws4.group_on_premise;strokeColor=#5A6C86;fillColor=none;verticalAlign=top;align=left;spacingLeft=30;fontColor=#5A6C86;dashed=0;" parent="1" vertex="1">
          <mxGeometry x="658.9399999999999" y="590" width="94.12" height="118.41" as="geometry" />
        </mxCell>
        <mxCell id="KMk3zY3-F5rNktSrJOaJ-107" value="" style="sketch=0;outlineConnect=0;fontColor=#232F3E;gradientColor=none;fillColor=#BF0816;strokeColor=none;dashed=0;verticalLabelPosition=bottom;verticalAlign=top;align=center;html=1;fontSize=12;fontStyle=0;aspect=fixed;pointerEvents=1;shape=mxgraph.aws4.waf_managed_rule;labelBackgroundColor=none;" parent="1" vertex="1">
          <mxGeometry x="383" y="443" width="61" height="61" as="geometry" />
        </mxCell>
        <mxCell id="KMk3zY3-F5rNktSrJOaJ-108" value="WAF" style="text;html=1;strokeColor=none;fillColor=none;align=center;verticalAlign=middle;whiteSpace=wrap;rounded=0;dashed=1;fontStyle=1" parent="1" vertex="1">
          <mxGeometry x="302" y="463" width="80" height="34" as="geometry" />
        </mxCell>
        <mxCell id="nzA6pa_3389GRCWHxSjF-1" value="CodeUp" style="shape=process;whiteSpace=wrap;html=1;backgroundOutline=1;strokeColor=#82b366;fillColor=#d5e8d4;gradientColor=#97d077;" parent="1" vertex="1">
          <mxGeometry x="96.27" y="765" width="91.73" height="33" as="geometry" />
        </mxCell>
        <mxCell id="nzA6pa_3389GRCWHxSjF-2" value="Swain" style="shape=process;whiteSpace=wrap;html=1;backgroundOutline=1;strokeColor=#b85450;fillColor=#f8cecc;gradientColor=#ea6b66;" parent="1" vertex="1">
          <mxGeometry x="96.27000000000001" y="740" width="91.73" height="25" as="geometry" />
        </mxCell>
        <mxCell id="nzA6pa_3389GRCWHxSjF-12" value="Test" style="shape=process;whiteSpace=wrap;html=1;backgroundOutline=1;fillColor=#f5f5f5;strokeColor=#666666;gradientColor=#b3b3b3;" parent="1" vertex="1">
          <mxGeometry x="96.27000000000001" y="798" width="91.73" height="25" as="geometry" />
        </mxCell>
        <mxCell id="nzA6pa_3389GRCWHxSjF-13" value="Jenkins" style="shape=process;whiteSpace=wrap;html=1;backgroundOutline=1;strokeColor=#996185;fillColor=#e6d0de;gradientColor=#d5739d;" parent="1" vertex="1">
          <mxGeometry x="96.27000000000001" y="713.4100000000001" width="91.73" height="25" as="geometry" />
        </mxCell>
        <mxCell id="u_pD7Ns_MpsrbYzYDKfG-2" value="" style="shape=mxgraph.cisco.storage.file_cabinet;html=1;pointerEvents=1;dashed=0;fillColor=#036897;strokeColor=#ffffff;strokeWidth=2;verticalLabelPosition=bottom;verticalAlign=top;align=center;outlineConnect=0;" parent="1" vertex="1">
          <mxGeometry x="661" y="116" width="51" height="62" as="geometry" />
        </mxCell>
        <mxCell id="u_pD7Ns_MpsrbYzYDKfG-4" value="" style="shape=mxgraph.cisco.storage.file_cabinet;html=1;pointerEvents=1;dashed=0;fillColor=#036897;strokeColor=#ffffff;strokeWidth=2;verticalLabelPosition=bottom;verticalAlign=top;align=center;outlineConnect=0;" parent="1" vertex="1">
          <mxGeometry x="632.4000000000001" y="178" width="51" height="62" as="geometry" />
        </mxCell>
        <mxCell id="u_pD7Ns_MpsrbYzYDKfG-5" value="" style="shape=mxgraph.cisco.storage.file_cabinet;html=1;pointerEvents=1;dashed=0;fillColor=#036897;strokeColor=#ffffff;strokeWidth=2;verticalLabelPosition=bottom;verticalAlign=top;align=center;outlineConnect=0;" parent="1" vertex="1">
          <mxGeometry x="689" y="178" width="51" height="62" as="geometry" />
        </mxCell>
        <mxCell id="u_pD7Ns_MpsrbYzYDKfG-8" value="快递员" style="text;html=1;strokeColor=none;fillColor=none;align=center;verticalAlign=middle;whiteSpace=wrap;rounded=0;dashed=1;fontStyle=1" parent="1" vertex="1">
          <mxGeometry x="357" y="105" width="80" height="34" as="geometry" />
        </mxCell>
        <mxCell id="u_pD7Ns_MpsrbYzYDKfG-10" value="" style="sketch=0;pointerEvents=1;shadow=0;dashed=0;html=1;strokeColor=none;labelPosition=center;verticalLabelPosition=bottom;verticalAlign=top;outlineConnect=0;align=center;shape=mxgraph.office.users.users;fillColor=#7FBA42;" parent="1" vertex="1">
          <mxGeometry x="437" y="187" width="46" height="50" as="geometry" />
        </mxCell>
        <mxCell id="7YYmYSPFP5t7wdT3Zkfi-8" style="edgeStyle=orthogonalEdgeStyle;rounded=0;orthogonalLoop=1;jettySize=auto;html=1;dashed=1;" edge="1" parent="1" source="u_pD7Ns_MpsrbYzYDKfG-11" target="u_pD7Ns_MpsrbYzYDKfG-10">
          <mxGeometry relative="1" as="geometry" />
        </mxCell>
        <mxCell id="u_pD7Ns_MpsrbYzYDKfG-11" value="" style="sketch=0;pointerEvents=1;shadow=0;dashed=0;html=1;strokeColor=none;labelPosition=center;verticalLabelPosition=bottom;verticalAlign=top;outlineConnect=0;align=center;shape=mxgraph.office.users.users;fillColor=#2072B8;" parent="1" vertex="1">
          <mxGeometry x="437" y="97" width="46" height="50" as="geometry" />
        </mxCell>
        <mxCell id="u_pD7Ns_MpsrbYzYDKfG-12" value="用户" style="text;html=1;strokeColor=none;fillColor=none;align=center;verticalAlign=middle;whiteSpace=wrap;rounded=0;dashed=1;fontStyle=1" parent="1" vertex="1">
          <mxGeometry x="363" y="203" width="80" height="34" as="geometry" />
        </mxCell>
        <mxCell id="7YYmYSPFP5t7wdT3Zkfi-7" value="" style="verticalLabelPosition=bottom;shadow=0;dashed=0;align=center;html=1;verticalAlign=top;strokeWidth=1;shape=mxgraph.mockup.misc.mail2;strokeColor=#999999;" vertex="1" parent="1">
          <mxGeometry x="423" y="160" width="19" height="14" as="geometry" />
        </mxCell>
        <mxCell id="7YYmYSPFP5t7wdT3Zkfi-10" value="" style="endArrow=classic;html=1;rounded=0;entryX=0;entryY=0.5;entryDx=0;entryDy=0;" edge="1" parent="1" source="u_pD7Ns_MpsrbYzYDKfG-11" target="u_pD7Ns_MpsrbYzYDKfG-13">
          <mxGeometry width="50" height="50" relative="1" as="geometry">
            <mxPoint x="150" y="188" as="sourcePoint" />
            <mxPoint x="160" y="148" as="targetPoint" />
          </mxGeometry>
        </mxCell>
        <mxCell id="7YYmYSPFP5t7wdT3Zkfi-11" value="" style="endArrow=classic;html=1;rounded=0;entryX=0;entryY=0.5;entryDx=0;entryDy=0;" edge="1" parent="1" source="u_pD7Ns_MpsrbYzYDKfG-10" target="u_pD7Ns_MpsrbYzYDKfG-13">
          <mxGeometry width="50" height="50" relative="1" as="geometry">
            <mxPoint x="250" y="268" as="sourcePoint" />
            <mxPoint x="590" y="168" as="targetPoint" />
          </mxGeometry>
        </mxCell>
        <mxCell id="7YYmYSPFP5t7wdT3Zkfi-16" value="存件" style="text;html=1;strokeColor=none;fillColor=none;align=center;verticalAlign=middle;whiteSpace=wrap;rounded=0;dashed=1;fontStyle=1" vertex="1" parent="1">
          <mxGeometry x="491" y="105" width="80" height="34" as="geometry" />
        </mxCell>
        <mxCell id="7YYmYSPFP5t7wdT3Zkfi-17" value="取件" style="text;html=1;strokeColor=none;fillColor=none;align=center;verticalAlign=middle;whiteSpace=wrap;rounded=0;dashed=1;fontStyle=1" vertex="1" parent="1">
          <mxGeometry x="503" y="192" width="80" height="34" as="geometry" />
        </mxCell>
        <mxCell id="7YYmYSPFP5t7wdT3Zkfi-20" value="应用场景" style="text;html=1;strokeColor=none;fillColor=none;align=center;verticalAlign=middle;whiteSpace=wrap;rounded=0;dashed=1;fontStyle=1;fontColor=#666666;" vertex="1" parent="1">
          <mxGeometry x="280" y="68" width="103" height="41" as="geometry" />
        </mxCell>
        <mxCell id="7YYmYSPFP5t7wdT3Zkfi-21" value="云服务" style="text;html=1;strokeColor=none;fillColor=none;align=center;verticalAlign=middle;whiteSpace=wrap;rounded=0;dashed=1;fontStyle=1;fontColor=#666666;" vertex="1" parent="1">
          <mxGeometry x="24.14" y="300" width="103" height="41" as="geometry" />
        </mxCell>
        <mxCell id="7YYmYSPFP5t7wdT3Zkfi-26" value="" style="html=1;verticalLabelPosition=bottom;labelBackgroundColor=#ffffff;verticalAlign=top;shadow=0;dashed=0;strokeWidth=2;shape=mxgraph.ios7.misc.down;strokeColor=#0080f0;fontColor=#666666;fillColor=#E6E6E6;" vertex="1" parent="1">
          <mxGeometry x="559" y="282" width="12" height="6" as="geometry" />
        </mxCell>
        <mxCell id="7YYmYSPFP5t7wdT3Zkfi-28" value="" style="html=1;verticalLabelPosition=bottom;labelBackgroundColor=#ffffff;verticalAlign=top;shadow=0;dashed=0;strokeWidth=2;shape=mxgraph.ios7.misc.up;strokeColor=#0080f0;fontColor=#666666;fillColor=#E6E6E6;" vertex="1" parent="1">
          <mxGeometry x="516" y="282" width="12" height="6" as="geometry" />
        </mxCell>
      </root>
    </mxGraphModel>
  </diagram>
</mxfile>
